<svg width="32" height="32" viewBox="0 0 32 32" fill="none" xmlns="http://www.w3.org/2000/svg">
<path d="M16.0023 15.8203C16.6657 15.8203 17.2328 15.5841 17.7037 15.1117C18.1748 14.6392 18.4103 14.0713 18.4103 13.408C18.4103 12.7447 18.1741 12.1775 17.7017 11.7063C17.2292 11.2355 16.6612 11 15.9977 11C15.3343 11 14.7672 11.2362 14.2963 11.7087C13.8252 12.1811 13.5897 12.7491 13.5897 13.4127C13.5897 14.076 13.8259 14.6431 14.2983 15.114C14.7708 15.5849 15.3388 15.8203 16.0023 15.8203ZM16 26.018C18.6084 23.6829 20.6046 21.4431 21.9883 19.2987C23.3721 17.1542 24.064 15.276 24.064 13.664C24.064 11.2333 23.2918 9.23512 21.7473 7.66934C20.2029 6.10357 18.2871 5.32068 16 5.32068C13.7129 5.32068 11.7971 6.10357 10.2527 7.66934C8.70822 9.23512 7.936 11.2333 7.936 13.664C7.936 15.276 8.62789 17.1542 10.0117 19.2987C11.3954 21.4431 13.3916 23.6829 16 26.018ZM16 28.6793C12.6444 25.7718 10.1282 23.0659 8.45133 20.5617C6.77444 18.0572 5.936 15.758 5.936 13.664C5.936 10.5871 6.93122 8.09612 8.92166 6.19101C10.9123 4.2859 13.2718 3.33334 16 3.33334C18.7282 3.33334 21.0877 4.2859 23.0783 6.19101C25.0688 8.09612 26.064 10.5871 26.064 13.664C26.064 15.758 25.2256 18.0572 23.5487 20.5617C21.8718 23.0659 19.3556 25.7718 16 28.6793Z" fill="#E20613"/>
</svg>
