<svg width="40" height="40" viewBox="0 0 40 40" fill="none" xmlns="http://www.w3.org/2000/svg">
<path d="M34.7504 35.9321C34.5064 35.7809 34.2445 35.6523 34.0216 35.4754C32.6241 34.3678 31.2374 33.2462 29.8368 32.1417C29.6973 32.0318 29.4876 31.957 29.3107 31.957C24.9139 31.9468 20.5163 31.9515 16.1195 31.9476C14.1506 31.9461 12.5559 30.7255 12.1545 28.8369C12.0165 28.1884 12.0375 27.497 12.0586 26.8283C12.0742 26.3209 12.5699 25.9553 13.0758 25.9779C13.5816 26.0005 13.9916 26.3996 14.0204 26.9171C14.0368 27.2172 14.0251 27.5181 14.0267 27.8189C14.0337 29.1206 14.8677 29.9562 16.1725 29.9562C20.6628 29.9585 25.1531 29.9608 29.6443 29.9507C30.1073 29.9499 30.483 30.0832 30.8384 30.3739C31.776 31.1432 32.7301 31.8931 33.6779 32.6499C33.748 32.706 33.8221 32.7559 33.9421 32.8432C33.9421 32.6951 33.9421 32.5961 33.9421 32.4979C33.9421 27.0738 33.9421 21.6505 33.9421 16.2263C33.9421 14.9107 33.2289 14.1351 31.9226 14.0229C31.3372 13.973 30.9288 13.5287 30.9592 12.9738C30.9896 12.4219 31.4385 12.0283 32.0317 12.0353C33.8992 12.0564 35.5571 13.4749 35.8704 15.3191C35.8821 15.3869 35.9125 15.4516 35.9336 15.5186V35.1846C35.7808 35.5291 35.529 35.7762 35.1869 35.9313H34.7512L34.7504 35.9321Z" fill="#FF1922"/>
<path d="M4.06943 17.864C4.06943 14.6184 4.06476 11.3728 4.07099 8.12801C4.07489 6.17162 5.31965 4.59794 7.20278 4.17081C7.51299 4.10066 7.8388 4.07416 8.15759 4.07416C14.0572 4.0687 19.9575 4.06792 25.8571 4.07104C28.225 4.0726 29.9546 5.80763 29.9569 8.17868C29.9608 12.0774 29.96 15.9762 29.9569 19.8749C29.9546 22.26 28.2227 23.9833 25.8275 23.9841C21.1196 23.9865 16.4126 23.9826 11.7048 23.9927C11.5287 23.9927 11.3174 24.066 11.1818 24.1774C9.45301 25.6007 7.73669 27.0387 6.01491 28.4706C5.86448 28.5961 5.71093 28.7239 5.54179 28.8213C4.9689 29.1487 4.28066 28.858 4.11464 28.2188C4.07411 28.0614 4.07021 27.8907 4.07021 27.7262C4.06787 24.4393 4.06865 21.1524 4.06865 17.8655L4.06943 17.864ZM6.06012 25.8197C6.18561 25.7238 6.26589 25.6669 6.3415 25.6038C7.62445 24.536 8.9113 23.472 10.1865 22.3956C10.5216 22.1127 10.8817 21.9864 11.3205 21.9872C16.1219 21.995 20.9232 21.9919 25.7246 21.9919C27.1572 21.9919 27.9655 21.1875 27.9655 19.7627C27.9655 15.9466 27.9655 12.1304 27.9655 8.3143C27.9655 6.86221 27.1658 6.06094 25.7176 6.06094C19.91 6.06094 14.1031 6.06094 8.29555 6.06094C6.86606 6.06094 6.05934 6.86688 6.05934 8.29481C6.05934 14.0089 6.05934 19.7229 6.05934 25.4362V25.8205L6.06012 25.8197Z" fill="#FF1922"/>
<path d="M17.0088 12.0345C15.0391 12.0345 13.0687 12.0384 11.0991 12.0322C10.3493 12.0298 9.86367 11.3751 10.1069 10.7079C10.2518 10.3096 10.5504 10.0945 10.9681 10.0485C11.071 10.0368 11.1755 10.043 11.2791 10.043C15.1046 10.043 18.9309 10.043 22.7564 10.043C22.9013 10.043 23.0494 10.0384 23.1897 10.0672C23.6831 10.1693 24.0159 10.619 23.9785 11.1117C23.9395 11.6276 23.5249 12.0252 22.9808 12.0291C21.6433 12.0384 20.3058 12.0329 18.9683 12.0329C18.3151 12.0329 17.6619 12.0329 17.0088 12.0329V12.0345Z" fill="#FF1922"/>
<path d="M15.0212 14.0268C16.3377 14.0268 17.6542 14.0198 18.9706 14.0299C19.7228 14.0354 20.2068 14.7439 19.9184 15.4056C19.7392 15.8171 19.4048 16.0159 18.9574 16.0167C17.9932 16.0182 17.0291 16.0167 16.0649 16.0167C14.4062 16.0167 12.7476 16.0221 11.089 16.0143C10.3329 16.0105 9.84029 15.316 10.1193 14.6519C10.2986 14.2255 10.6416 14.0252 11.1022 14.026C12.4085 14.026 13.7149 14.026 15.0212 14.026V14.0268Z" fill="#FF1922"/>
</svg>
