<svg width="50" height="50" viewBox="0 0 50 50" fill="none" xmlns="http://www.w3.org/2000/svg">
<path d="M44.5644 9.48377C44.2081 8.19666 43.2531 7.45969 41.9141 7.45969C38.7171 7.44931 35.5097 7.44931 32.3092 7.45969C32.0221 7.47007 31.8664 7.41471 31.7522 7.11369C31.5792 6.65351 30.4409 6.00996 29.9461 6.08954C29.7039 6.13452 29.4513 6.27984 29.261 6.44592C28.9046 6.75039 28.6105 7.12407 28.2611 7.44585C28.1642 7.53235 27.9843 7.56003 27.8424 7.54965C27.1573 7.52197 26.8183 7.14137 26.7733 6.46322C26.7629 6.24524 26.6764 6.03764 26.6245 5.83004C26.6003 5.73316 26.5795 5.62936 26.538 5.54287C26.1713 4.71593 25.4343 4.86471 24.7561 4.87509C24.1749 4.87509 23.8081 5.12767 23.6628 5.62244C23.514 6.09992 23.4275 6.58778 23.2787 7.05487C23.2337 7.19327 23.0884 7.32475 22.95 7.39395C22.3584 7.71573 21.8913 7.56695 21.5176 7.00989C21.3515 6.76769 21.1162 6.57394 20.9086 6.37672C20.6215 6.09992 20.2478 5.95806 19.8914 6.12414C19.2998 6.40094 18.6147 6.58432 18.3621 7.33167C18.3344 7.41125 18.1095 7.45277 17.978 7.45277C14.7637 7.46315 11.546 7.46315 8.33166 7.46315C7.68118 7.46315 7.07915 7.61885 6.56707 8.04442C5.9166 8.5738 5.58444 9.26233 5.58444 10.1031V33.2468C5.58444 35.0356 6.65357 36.1048 8.45968 36.1048H17.2999C17.2999 36.6168 17.3172 37.077 17.293 37.5476C17.2826 37.6444 17.1373 37.7655 17.0335 37.8244C15.7983 38.5371 14.5665 39.2499 13.3244 39.9349C12.9057 40.1702 12.7085 40.4574 12.7431 40.9349C12.7777 41.3778 12.7777 41.831 12.7431 42.2739C12.6808 43.0731 13.0026 43.6198 13.75 43.907H36.475C37.2224 43.6129 37.5338 43.0731 37.475 42.2739C37.4404 41.786 37.4577 41.3086 37.475 40.8242C37.4923 40.4332 37.3262 40.191 36.9871 39.9972C35.7277 39.2949 34.4856 38.5648 33.2227 37.852C32.9874 37.7206 32.894 37.5822 32.9113 37.3227C32.9286 36.9317 32.9113 36.5407 32.9113 36.1048H41.447C43.3154 36.1048 43.9832 35.6515 44.6371 33.9146V9.66715C44.6094 9.60487 44.5852 9.54605 44.5679 9.48377H44.5644ZM19.7772 10.4595C20.1613 10.1135 20.2651 9.70175 20.1232 9.21735C19.9745 8.72258 19.8361 8.21742 19.6873 7.69497C19.8361 7.60847 19.9641 7.52197 20.054 7.47007C20.4727 7.86104 20.8706 8.21742 21.2443 8.60148C21.6006 8.94747 21.9847 9.05473 22.4622 8.90595C22.8358 8.78486 23.2199 8.68798 23.6005 8.60148C24.0365 8.4873 24.3236 8.2451 24.4344 7.80222C24.5555 7.34205 24.6592 6.86457 24.808 6.4044C24.8357 6.30752 24.9983 6.18642 25.1021 6.18642C25.2059 6.17604 25.372 6.3006 25.4066 6.39402C25.5381 6.82997 25.6419 7.27977 25.7457 7.72265C25.8668 8.21742 26.1713 8.5046 26.6764 8.6084C27.0328 8.6776 27.3892 8.78139 27.7352 8.89557C28.2299 9.06165 28.6209 8.94055 28.9877 8.58418C29.351 8.2105 29.7523 7.87142 30.1779 7.49083C30.2402 7.52543 30.3786 7.60501 30.5274 7.69151C30.3786 8.21396 30.2506 8.70874 30.0914 9.20351C29.9426 9.70867 30.0568 10.1239 30.4547 10.4802C30.7315 10.7328 30.9945 11.0096 31.254 11.2899C31.5757 11.6186 31.9494 11.7327 32.4027 11.6013C32.8386 11.4802 33.2815 11.366 33.714 11.2276C33.8974 11.1757 34.0185 11.1757 34.1223 11.366C34.2261 11.5494 34.2018 11.6532 34.0531 11.7916C33.7244 12.0857 33.4095 12.4074 33.0877 12.7119C32.721 13.051 32.6345 13.4489 32.7833 13.9194C32.8974 14.3104 33.0012 14.7014 33.0947 15.1028C33.1985 15.5456 33.4683 15.8051 33.9043 15.9193C34.4337 16.0508 34.963 16.1788 35.4786 16.3103C35.6101 16.684 35.5132 16.8743 35.1222 16.9365C34.7485 16.9988 34.3852 17.1372 34.0081 17.2064C33.4683 17.3206 33.1742 17.6424 33.0704 18.1718C32.9909 18.5385 32.8974 18.8914 32.7833 19.2409C32.6449 19.7011 32.7314 20.0851 33.0704 20.4242C33.4441 20.8082 33.8005 21.2061 34.2018 21.6421C34.1396 21.9362 33.9596 22.0435 33.5756 21.8947C33.1846 21.7459 32.7763 21.6594 32.3681 21.5487C31.9494 21.4276 31.593 21.5487 31.292 21.8532C30.991 22.1576 30.6934 22.4621 30.3786 22.7666C30.0395 23.0953 29.9703 23.4793 30.0914 23.9222C30.2056 24.3478 30.3267 24.7734 30.4547 25.1989C30.517 25.3823 30.517 25.493 30.3336 25.6072C30.1329 25.7214 30.0222 25.6695 29.8803 25.5103C29.5759 25.1886 29.2645 24.8772 28.9496 24.5554C28.6209 24.2094 28.2369 24.1125 27.7663 24.2509C27.3822 24.372 26.9843 24.4689 26.5934 24.5623C26.1678 24.6765 25.8806 24.9291 25.7664 25.3719C25.6799 25.7387 25.5934 26.1089 25.4793 26.4757C25.4101 26.6763 25.5139 27.005 25.0883 26.9981C24.6869 26.9981 24.7942 26.6867 24.7215 26.493C24.6073 26.1297 24.5312 25.756 24.4447 25.3892C24.3306 24.9291 24.0365 24.6696 23.5936 24.5623C23.1922 24.4585 22.8012 24.3616 22.4103 24.2509C21.9674 24.1125 21.5833 24.2163 21.2616 24.545C20.9329 24.8737 20.618 25.2301 20.2789 25.5519C20.1993 25.6211 19.9918 25.6384 19.9053 25.5865C19.8084 25.5415 19.7323 25.3512 19.7496 25.2578C19.8534 24.8045 19.9918 24.372 20.1129 23.9361C20.2512 23.4482 20.1474 23.0399 19.7565 22.6939C19.4866 22.4517 19.2271 22.1888 18.9745 21.9189C18.6458 21.5556 18.2618 21.4137 17.7739 21.5625C17.338 21.694 16.8951 21.8151 16.4626 21.9466C16.2723 22.0089 16.1235 21.9812 16.0785 21.7736C16.0612 21.6525 16.0681 21.4795 16.1408 21.3999C16.4626 21.0608 16.8086 20.739 17.1477 20.4103C17.4764 20.099 17.549 19.7253 17.4348 19.2962C17.331 18.888 17.1996 18.4866 17.1131 18.0783C17.0093 17.6182 16.7221 17.3483 16.2792 17.2341C15.8882 17.1303 15.4973 16.9988 15.0959 16.9469C14.7049 16.8846 14.608 16.6943 14.7222 16.3207C15.2274 16.1892 15.7395 16.0612 16.2515 15.9297C16.7394 15.8155 17.0162 15.5214 17.12 15.0336C17.2065 14.6495 17.3103 14.2689 17.4245 13.8952C17.5559 13.4524 17.4694 13.0787 17.1373 12.7396C16.7636 12.3486 16.3968 11.9403 16.0059 11.5044C16.0681 11.2345 16.2481 11.1203 16.6148 11.2622C17.0058 11.411 17.4141 11.5044 17.8224 11.6116C18.2306 11.7258 18.5974 11.6289 18.8984 11.3245C19.1856 11.0373 19.4624 10.7328 19.7599 10.4629L19.7772 10.4595ZM6.88885 10.3107C6.88885 9.25887 7.38363 8.75372 8.41816 8.75372C11.6947 8.75372 14.9713 8.75372 18.2548 8.7641C18.3932 8.7641 18.6389 8.85059 18.6735 8.94747C18.76 9.20005 18.9261 9.43533 18.6389 9.76403C18.2133 10.2692 17.7947 10.3384 17.2307 10.0858C16.9885 9.982 16.7186 9.91972 16.4557 9.86783C16.2723 9.83323 16.0716 9.78825 15.8986 9.83323C15.134 10.0339 14.9437 10.7363 14.6738 11.3279C14.4558 11.7881 14.6911 12.1895 15.0475 12.5182C15.3692 12.8053 15.6806 13.0994 15.9782 13.4212C16.0647 13.5181 16.0993 13.698 16.0924 13.8399C16.0474 14.4903 15.7187 14.864 15.0405 14.8986C14.7637 14.9159 14.4939 15.0197 14.224 15.0889C13.7292 15.2273 13.449 15.5664 13.4247 16.0785C13.4074 16.4072 13.4074 16.7393 13.4247 17.068C13.4524 17.5801 13.7292 17.9123 14.2344 18.0403C14.6876 18.1717 15.1374 18.2825 15.5976 18.3793C15.8225 18.4312 15.8744 18.5627 15.9609 18.753C16.2308 19.3516 16.082 19.7945 15.5422 20.1612C15.3346 20.2996 15.1686 20.5107 14.9956 20.6837C14.5423 21.1266 14.4904 21.5348 14.788 22.0988C14.9021 22.3064 15.0232 22.5175 15.1513 22.7251C15.4903 23.2821 15.8813 23.4378 16.4972 23.2648C16.9331 23.1506 17.3483 23.0122 17.7843 22.9188C17.9227 22.8911 18.113 22.9465 18.2445 23.033C18.8188 23.379 18.8949 23.8669 18.6181 24.4654C18.497 24.7249 18.4451 25.0225 18.3759 25.3097C18.2618 25.7698 18.4209 26.1608 18.8015 26.4411C18.8292 26.4584 18.8465 26.4688 18.8638 26.4861C20.1509 27.2853 20.4381 27.3718 21.4795 26.192C21.4968 26.1747 21.5141 26.1574 21.5314 26.1297C22.175 25.4619 22.1819 25.4515 23.0434 25.7733C23.1472 25.8183 23.2441 25.9636 23.2683 26.0778C23.3894 26.4861 23.4863 26.9116 23.5901 27.3303C23.7562 27.9981 24.0953 28.2679 24.7803 28.2783C26.2751 28.3129 26.3892 28.2264 26.7525 26.7836C26.7698 26.7317 26.7802 26.6798 26.7871 26.6348C27.0051 25.7387 27.0051 25.7318 27.9255 25.5761C28.0293 25.5588 28.1677 25.6211 28.2472 25.6972C28.5759 26.0259 28.8977 26.3753 29.2299 26.704C29.6485 27.1227 30.081 27.1919 30.6104 26.9047C30.8699 26.7732 31.1225 26.6279 31.3647 26.4688C31.8006 26.1816 31.9459 25.7837 31.8248 25.2785C31.7037 24.808 31.5723 24.3478 31.4235 23.8876C31.3612 23.6869 31.4339 23.5831 31.5446 23.4274C31.9459 22.8808 32.413 22.7943 33.0116 23.0711C33.2469 23.1852 33.5168 23.2268 33.7763 23.296C34.3056 23.4274 34.7139 23.2614 35.0184 22.7908C35.1672 22.5555 35.3056 22.3133 35.437 22.0711C35.7138 21.5591 35.655 21.1335 35.2468 20.7148C34.925 20.393 34.5963 20.0713 34.2572 19.7668C34.0911 19.618 34.0911 19.4796 34.1084 19.272C34.188 18.6215 34.5167 18.2998 35.1672 18.2548C35.444 18.2375 35.7138 18.1233 35.9837 18.0541C36.4543 17.9157 36.7484 17.6112 36.783 17.1061C36.8072 16.767 36.8072 16.421 36.7899 16.0819C36.7553 15.5595 36.4854 15.2377 35.9803 15.0993C35.527 14.9678 35.0668 14.8571 34.617 14.7602C34.3991 14.7152 34.3299 14.5872 34.2537 14.3969C33.9839 13.7983 34.1223 13.3555 34.662 12.9818C34.8973 12.833 35.098 12.6254 35.2606 12.4005C35.4094 12.2171 35.5651 11.9922 35.5824 11.7743C35.617 11.0788 35.1914 10.5494 34.7658 10.072C34.4267 9.68791 33.9666 9.78479 33.5237 9.92318C33.3334 9.99238 33.1223 10.0201 32.9424 10.1066C32.4027 10.3488 31.9702 10.3072 31.6034 9.78479C31.4304 9.53221 31.3508 9.08241 31.5688 8.84713C31.6207 8.78486 31.7522 8.76756 31.8387 8.76756C35.2191 8.75718 38.5995 8.75718 41.9799 8.76756C42.7618 8.76756 43.3189 9.31423 43.3189 10.0893V29.4166C43.3189 29.4512 43.3085 29.4962 43.2912 29.5723H6.88885V10.3107ZM36.1533 42.5887H14.0683V41.3362H36.1533V42.5887ZM34.3368 39.9903H15.8951C16.6252 39.5647 17.2757 39.1807 17.9296 38.8243L17.9469 38.8139L18.632 38.3364V36.129H31.5826V38.4402L32.3646 38.8658C32.9978 39.2049 33.6171 39.5682 34.3368 39.9868V39.9903ZM43.3223 33.5755C43.305 34.2087 42.8275 34.6966 42.1944 34.7761C42.0387 34.8038 41.8726 34.8038 41.7065 34.8038H8.50812C7.35249 34.8038 6.89231 34.3436 6.89231 33.188V30.9183H43.3327C43.3327 31.8317 43.35 32.7071 43.3223 33.579V33.5755Z" fill="#FF1922"/>
<path d="M25.1056 22.4241C28.3649 22.4068 30.991 19.7807 30.9703 16.5594C30.953 13.3001 28.3096 10.7121 25.033 10.719C21.836 10.7363 19.2271 13.397 19.2444 16.6286C19.2617 19.8187 21.9121 22.4345 25.1022 22.4241H25.1056ZM25.0537 12.0234C27.6003 12.013 29.6589 14.0406 29.6693 16.5698C29.6797 19.0818 27.6349 21.1162 25.1056 21.1231C22.5937 21.1335 20.5523 19.0887 20.5523 16.5594C20.5419 14.0994 22.5937 12.0407 25.0537 12.0234Z" fill="#FF1922"/>
</svg>
