<svg width="44" height="44" viewBox="0 0 44 44" fill="none" xmlns="http://www.w3.org/2000/svg">
<path d="M28.9826 12.7949C26.7193 12.7949 24.4536 12.7974 22.1903 12.7899C21.9416 12.7899 21.821 12.8451 21.7356 13.1039C21.0925 15.013 19.3517 16.2539 17.3773 16.2463C15.423 16.2363 13.6998 14.9853 13.0618 13.0913C12.9814 12.8527 12.8784 12.7848 12.6348 12.7874C11.1728 12.7999 9.71083 12.7999 8.24887 12.7899C7.34707 12.7848 6.77937 11.9258 7.16118 11.147C7.38224 10.6949 7.76657 10.4889 8.26645 10.4889C9.71585 10.4889 11.1653 10.4839 12.6147 10.4964C12.8684 10.4964 12.9814 10.4311 13.0668 10.1774C13.6998 8.29094 15.4356 7.04249 17.3924 7.03998C19.3543 7.03747 21.085 8.27336 21.7256 10.1649C21.816 10.4311 21.934 10.499 22.2053 10.499C26.6616 10.4889 31.1203 10.4914 35.5765 10.4939C35.7323 10.4939 35.8905 10.4889 36.0412 10.5191C36.619 10.6371 37.0159 11.1822 36.9556 11.76C36.8953 12.3377 36.4155 12.7874 35.8101 12.7899C34.2402 12.7999 32.6702 12.7924 31.1027 12.7924C30.3969 12.7924 29.6885 12.7924 28.9826 12.7924V12.7949ZM19.7009 11.6444C19.7009 10.3734 18.6635 9.34094 17.3924 9.34345C16.1389 9.34597 15.109 10.3734 15.099 11.6243C15.0915 12.8954 16.1214 13.9403 17.3899 13.9454C18.6584 13.9504 19.7009 12.913 19.7009 11.6444Z" fill="#FF1922"/>
<path d="M15.0382 20.8482C17.3015 20.8482 19.5673 20.8457 21.8306 20.8533C22.0667 20.8533 22.1797 20.8005 22.2626 20.5568C22.9032 18.6478 24.6389 17.3943 26.6083 17.3968C28.5802 17.3968 30.2984 18.6427 30.949 20.5644C31.0244 20.7879 31.1198 20.8558 31.3484 20.8533C32.7852 20.8432 34.2246 20.8482 35.6614 20.8482C36.4276 20.8482 36.9526 21.3104 36.9576 21.9887C36.9626 22.6795 36.4376 23.1492 35.6464 23.1492C34.2321 23.1492 32.8179 23.1567 31.4062 23.1417C31.1324 23.1391 31.0168 23.217 30.9289 23.4783C30.2884 25.3647 28.5551 26.6031 26.5933 26.6006C24.6364 26.5981 22.9032 25.3472 22.2702 23.4607C22.1822 23.2019 22.0642 23.1442 21.8155 23.1442C17.3593 23.1517 12.9005 23.1492 8.44431 23.1492C8.27852 23.1492 8.1052 23.1542 7.94443 23.119C7.36417 22.9909 6.97984 22.4433 7.04766 21.8656C7.11799 21.2728 7.6028 20.8507 8.24335 20.8507C10.5066 20.8457 12.7724 20.8507 15.0357 20.8507L15.0382 20.8482ZM28.9043 22.0037C28.9043 20.7327 27.8693 19.6978 26.6008 19.6978C25.3473 19.6978 24.3149 20.7226 24.3049 21.9736C24.2948 23.2446 25.3247 24.2921 26.5907 24.2972C27.8593 24.3047 28.9043 23.2698 28.9043 22.0012V22.0037Z" fill="#FF1922"/>
<path d="M28.9518 33.5085C26.6986 33.5085 24.4478 33.511 22.1946 33.5035C21.9535 33.5035 21.8228 33.5437 21.7324 33.81C21.0893 35.7216 19.3536 36.965 17.3792 36.96C15.4249 36.9524 13.6916 35.704 13.0611 33.8125C12.9732 33.5462 12.8451 33.5035 12.6014 33.5035C11.1746 33.5135 9.75033 33.5085 8.32353 33.5085C7.56241 33.5085 7.03992 33.0338 7.03992 32.3555C7.03992 31.6748 7.55989 31.2076 8.32604 31.2076C9.75284 31.2076 11.1771 31.2025 12.6039 31.2126C12.8501 31.2126 12.9732 31.1649 13.0611 30.9011C13.6941 29.0096 15.4249 27.7611 17.3817 27.7561C19.3435 27.7511 21.0818 28.9845 21.7198 30.8735C21.8178 31.1623 21.9585 31.2151 22.2298 31.2126C26.6759 31.205 31.1196 31.2076 35.5658 31.2076C35.7215 31.2076 35.8798 31.2 36.0305 31.2302C36.6083 31.3432 37.0077 31.8883 36.9549 32.4661C36.8996 33.0438 36.4199 33.4985 35.817 33.5035C34.4882 33.5135 33.1568 33.506 31.828 33.5085C30.8684 33.5085 29.9114 33.5085 28.9518 33.5085ZM19.7002 32.3706C19.7052 31.0995 18.6728 30.0596 17.4043 30.0571C16.1483 30.0571 15.1134 31.0744 15.1008 32.3254C15.0883 33.5964 16.1131 34.6464 17.3792 34.6565C18.6502 34.6665 19.6952 33.6341 19.7027 32.3681L19.7002 32.3706Z" fill="#FF1922"/>
</svg>
