<svg width="50" height="50" viewBox="0 0 50 50" fill="none" xmlns="http://www.w3.org/2000/svg">
<path d="M6.05472 28.1849C6.59447 27.4064 7.13077 26.6279 7.67398 25.8529C8.05458 25.3062 8.39366 25.2405 8.95417 25.6107C9.6427 26.0639 10.3312 26.5241 11.0129 26.9843C11.4626 27.2888 11.5768 27.7074 11.3208 28.0846C11.0648 28.4617 10.6496 28.5101 10.1859 28.2091C9.94026 28.05 9.6946 27.8874 9.34515 27.6555C9.51815 28.3441 9.62195 28.9426 9.8157 29.5135C11.909 35.7449 16.182 39.4782 22.6487 40.6892C23.147 40.7827 23.3961 40.9626 23.4549 41.3189C23.5483 41.8829 23.1124 42.2877 22.4757 42.1597C21.5588 41.9763 20.6281 41.8206 19.7493 41.5127C13.4002 39.2879 9.47663 34.8834 7.98884 28.3164C7.98192 28.2818 7.975 28.2437 7.96462 28.2091C7.96462 28.1987 7.95078 28.1918 7.9058 28.1365C7.77432 28.3233 7.65322 28.4963 7.53212 28.6728C7.05811 29.3544 6.50451 29.3371 6.06164 28.6347C6.06164 28.4859 6.06164 28.3371 6.06164 28.1918L6.05472 28.1849Z" fill="#FF1922"/>
<path d="M13.6494 28.2368C13.729 27.5517 13.9712 27.0016 14.421 26.5414C14.7324 26.2231 15.0542 25.9186 15.3621 25.6003C15.7877 25.1609 15.7842 24.7042 15.3621 24.2682C15.0611 23.9603 14.7462 23.6627 14.4452 23.3548C13.6494 22.5417 13.5041 21.4484 14.075 20.4692C14.5663 19.6284 15.068 18.7946 15.5801 17.9676C16.1579 17.03 17.1717 16.6079 18.2546 16.8466C18.7356 16.9504 19.213 17.0784 19.694 17.1753C20.2407 17.2826 20.6766 17.0231 20.8427 16.4971C20.9776 16.075 21.0883 15.646 21.2233 15.2239C21.5485 14.2101 22.4343 13.5389 23.4896 13.525C24.5483 13.5112 25.6105 13.5112 26.6727 13.525C27.7142 13.5389 28.6034 14.1997 28.9286 15.1893C29.0601 15.5872 29.1708 15.992 29.2919 16.3899C29.4926 17.0473 29.9043 17.2964 30.5825 17.1511C31.0392 17.0542 31.4925 16.9296 31.9492 16.8293C32.9664 16.6079 33.994 17.0196 34.5476 17.9019C35.0839 18.7565 35.6029 19.625 36.1081 20.5003C36.6478 21.4345 36.5094 22.5106 35.7655 23.2994C35.4611 23.6212 35.1358 23.9257 34.8244 24.2405C34.3642 24.7076 34.3642 25.1644 34.8244 25.6211C35.1289 25.9256 35.4438 26.2231 35.7413 26.5345C36.5163 27.3441 36.6582 28.4236 36.0942 29.3924C35.6064 30.2332 35.1047 31.0671 34.5926 31.8975C34.0044 32.849 32.9699 33.2676 31.88 33.0185C31.4717 32.9251 31.0669 32.8213 30.6586 32.7244C29.9216 32.5514 29.5064 32.7901 29.285 33.5098C29.1708 33.8869 29.0636 34.2675 28.9425 34.6412C28.6242 35.6238 27.8111 36.2951 26.7869 36.3297C25.6555 36.3677 24.5172 36.3677 23.3858 36.3297C22.3616 36.2951 21.5451 35.6204 21.2302 34.6412C21.1022 34.2433 20.9915 33.8385 20.8704 33.4371C20.6835 32.8247 20.2614 32.5687 19.6213 32.7002C19.1888 32.7901 18.7598 32.9078 18.3273 33.0046C17.1717 33.2711 16.1579 32.8455 15.542 31.8317C15.0611 31.0428 14.5698 30.2574 14.1234 29.4478C13.9158 29.0707 13.8086 28.6347 13.6563 28.2264L13.6494 28.2368ZM17.1544 24.9118C17.1405 25.5623 16.9225 26.1228 16.4727 26.5829C16.1614 26.9013 15.8396 27.2057 15.5316 27.5241C15.151 27.9116 15.1095 28.2507 15.3898 28.7212C15.85 29.4928 16.3136 30.2644 16.7807 31.0325C17.0921 31.5445 17.4485 31.6968 18.0297 31.5618C18.4622 31.4615 18.8913 31.3473 19.3238 31.2504C20.6593 30.9529 21.8668 31.6587 22.2682 32.9631C22.3893 33.3645 22.5069 33.7658 22.628 34.1672C22.7561 34.5928 23.0467 34.8488 23.4861 34.8557C24.5449 34.873 25.6071 34.873 26.6658 34.8557C27.1052 34.8488 27.4028 34.6032 27.5343 34.1776C27.6588 33.7797 27.773 33.3749 27.8941 32.9735C28.2989 31.6449 29.5099 30.9425 30.8628 31.2504C31.2953 31.3508 31.7243 31.465 32.1568 31.5618C32.7173 31.6864 33.0771 31.5342 33.3782 31.0394C33.8522 30.2609 34.3227 29.4789 34.7864 28.6935C35.0459 28.2541 35.0113 27.9047 34.6687 27.5517C34.3539 27.223 34.0182 26.9116 33.6999 26.5829C32.7727 25.6142 32.7761 24.2302 33.7069 23.2614C33.9975 22.9604 34.302 22.6732 34.5995 22.3756C35.0182 21.9501 35.0632 21.6214 34.7656 21.1197C34.3054 20.3481 33.8418 19.5765 33.3747 18.8084C33.0771 18.3171 32.7138 18.1683 32.1533 18.2963C31.745 18.3897 31.3402 18.4935 30.932 18.587C29.5099 18.9226 28.3093 18.234 27.8872 16.8397C27.7695 16.4522 27.6588 16.0577 27.5343 15.6737C27.3889 15.2343 27.0879 14.999 26.6278 14.9955C25.6036 14.9851 24.5795 14.9851 23.5588 14.9955C23.0778 14.999 22.7803 15.2308 22.6315 15.6944C22.4862 16.1511 22.3651 16.6182 22.2094 17.0715C21.8219 18.1683 20.7285 18.8292 19.5833 18.6458C19.0608 18.5627 18.5487 18.4174 18.0332 18.2998C17.4623 18.1683 17.1025 18.3102 16.8049 18.7946C16.3309 19.5731 15.8638 20.355 15.3967 21.1404C15.1164 21.611 15.158 21.9535 15.5386 22.341C15.8569 22.6663 16.189 22.9811 16.5073 23.3098C16.9398 23.7527 17.1405 24.2994 17.1647 24.9083L17.1544 24.9118Z" fill="#FF1922"/>
<path d="M28.2815 42.1147C28.5133 42.2704 28.7209 42.4019 28.9181 42.5472C29.2884 42.8206 29.3749 43.2358 29.143 43.5818C28.9181 43.9209 28.4753 44.0108 28.0947 43.7652C27.3369 43.2808 26.5861 42.786 25.8422 42.2808C25.472 42.0282 25.3855 41.62 25.6277 41.2428C26.1294 40.4678 26.6415 39.6962 27.1674 38.935C27.4131 38.5787 27.8421 38.4991 28.1743 38.7101C28.5237 38.9316 28.6206 39.3675 28.3888 39.7516C28.2192 40.0353 28.0289 40.3052 27.849 40.5785C27.8663 40.6166 27.8871 40.6546 27.9044 40.6927C28.842 40.4124 29.8143 40.2118 30.7173 39.845C36.364 37.5338 39.7513 33.3679 40.8343 27.3511C40.9519 26.7006 41.4086 26.3823 41.9103 26.6279C42.239 26.7871 42.374 27.0916 42.3048 27.5344C41.9761 29.6346 41.336 31.6345 40.2634 33.4752C37.5715 38.077 33.6272 40.966 28.3853 42.0455C28.3646 42.049 28.3473 42.0732 28.2815 42.1217V42.1147Z" fill="#FF1922"/>
<path d="M40.5714 21.3065C40.5368 21.1093 40.5264 21.0055 40.4987 20.9052C38.6477 14.6634 34.5614 10.7917 28.2159 9.31083C27.9529 9.24855 27.683 9.21049 27.4166 9.16551C26.9011 9.07901 26.6243 8.73993 26.7038 8.2763C26.773 7.86802 27.1536 7.62582 27.6277 7.69848C30.2884 8.1033 32.745 9.03403 34.949 10.5841C38.5612 13.1203 40.9278 16.5283 42.0073 20.8152C42.0177 20.8637 42.0315 20.9121 42.0453 20.9571C42.0453 20.9675 42.0592 20.9744 42.1076 21.0194C42.2529 20.8118 42.3983 20.6076 42.5401 20.4035C42.8377 19.9883 43.2563 19.881 43.6196 20.1267C43.9864 20.3758 44.0487 20.7979 43.7615 21.2339C43.2979 21.9328 42.8308 22.6282 42.3567 23.3168C42.0419 23.7735 41.6475 23.8427 41.1804 23.5244C40.4572 23.0331 39.7375 22.5348 39.0213 22.0331C38.5958 21.7356 38.4885 21.3169 38.7272 20.9536C38.9764 20.5765 39.4158 20.5211 39.8621 20.8187C40.0732 20.9605 40.2808 21.1059 40.5679 21.3031L40.5714 21.3065Z" fill="#FF1922"/>
<path d="M21.1713 7.94757C20.8841 7.75035 20.6557 7.60849 20.4412 7.44933C20.0917 7.18637 20.0087 6.77464 20.2267 6.43902C20.4516 6.09302 20.8945 5.98923 21.2681 6.23142C22.012 6.71582 22.749 7.21059 23.4756 7.71575C23.8735 7.99255 23.9462 8.4112 23.6659 8.81256C23.1538 9.55299 22.6314 10.283 22.0985 11.0096C21.8183 11.3937 21.3719 11.4664 21.0294 11.2103C20.7042 10.9681 20.6453 10.5391 20.8979 10.1585C21.0467 9.93359 21.2059 9.71907 21.3616 9.49763C21.3443 9.46303 21.327 9.42843 21.3062 9.39383C20.4516 9.69485 19.5693 9.93013 18.7527 10.3107C13.4832 12.7465 10.3139 16.8189 9.31741 22.559C9.22053 23.1126 8.89875 23.3929 8.42473 23.3133C7.98532 23.2372 7.7535 22.8566 7.85384 22.3203C9.15133 15.3173 13.1718 10.6533 19.8911 8.3074C20.0883 8.2382 20.2924 8.18976 20.4931 8.13441C20.6938 8.07905 20.8979 8.02715 21.1747 7.95449L21.1713 7.94757Z" fill="#FF1922"/>
<path d="M25.0775 30.69C22.1158 30.6311 19.5589 28.2265 19.3859 25.2855C19.2129 22.3341 21.4342 19.6492 24.3786 19.2963C26.3923 19.0541 28.0531 19.7599 29.3852 21.265C29.752 21.6802 29.7554 22.1058 29.4198 22.4068C29.0738 22.7182 28.6482 22.6525 28.2642 22.2269C27.1051 20.9467 25.683 20.4173 24.0015 20.881C22.3718 21.3308 21.3373 22.4414 20.9533 24.0884C20.5311 25.8945 21.5034 27.832 23.1953 28.697C24.863 29.5482 26.856 29.1849 28.1327 27.8009C28.2261 27.7006 28.3057 27.5933 28.4026 27.4964C28.707 27.185 29.1222 27.1573 29.4336 27.4203C29.7347 27.6729 29.7831 28.1158 29.5201 28.4514C28.7762 29.4029 27.8282 30.0706 26.6691 30.3993C26.1536 30.5447 25.6104 30.6 25.0775 30.6969V30.69Z" fill="#FF1922"/>
</svg>
