<svg width="50" height="50" viewBox="0 0 50 50" fill="none" xmlns="http://www.w3.org/2000/svg">
<path d="M37.7655 17.1718C39.6097 17.369 41.1666 18.1025 42.3672 19.483C44.1734 21.5625 44.6612 23.9568 43.7132 26.531C42.7721 29.0879 40.8622 30.593 38.1599 31.029C37.6063 31.1189 37.032 31.1016 36.468 31.1051C36.0909 31.1051 35.8521 30.8525 35.859 30.5065C35.866 30.1743 36.0874 29.9564 36.4542 29.9287C37.07 29.8837 37.6963 29.9079 38.2949 29.7938C41.1147 29.2609 43.17 26.6071 42.9485 23.8357C42.7029 20.7529 40.3605 18.4589 37.3538 18.362C36.7759 18.3447 36.6029 18.1613 36.5683 17.6008C36.4507 15.8016 35.6169 14.435 33.9976 13.6288C32.3922 12.8295 30.811 12.9748 29.3197 13.9679C28.7557 14.3415 28.4755 14.2758 28.1572 13.6738C26.8562 11.2345 24.8944 9.63598 22.1437 9.1931C18.2409 8.56339 14.5214 10.8919 13.2655 14.6529C12.9506 15.601 12.8053 16.5767 12.8295 17.5731C12.8433 18.1302 12.6946 18.3274 12.1444 18.3932C9.54945 18.708 7.63955 20.6664 7.16553 22.9153C6.40088 26.5345 9.06505 29.8457 12.7949 29.9218C13.0509 29.9287 13.3104 29.9149 13.5665 29.9287C13.9228 29.9495 14.1581 30.1917 14.1616 30.5134C14.1616 30.8317 13.9194 31.0774 13.5734 31.1085C9.69131 31.4442 6.35936 28.7592 5.8715 24.9048C5.42863 21.4172 7.86445 18.0852 11.4351 17.2929C11.4836 17.2825 11.5355 17.2721 11.5735 17.2652C12.0129 12.4662 14.338 9.11006 19.1612 8.08937C23.462 7.1794 26.6867 9.11352 29.0602 12.6946C30.8732 11.7362 32.7485 11.6255 34.61 12.5804C36.4576 13.5284 37.4749 15.0958 37.7724 17.1718H37.7655Z" fill="#FF1922"/>
<path d="M22.1192 31.6517C22.6798 31.6517 23.1849 31.6206 23.6797 31.6656C23.908 31.6863 24.1814 31.804 24.3302 31.9701C24.5308 32.1949 24.4097 32.4752 24.2471 32.7139C22.7559 34.9456 21.2646 37.1842 19.7734 39.4159C19.4135 39.9522 18.9707 39.9557 18.6177 39.4263C17.1161 37.1842 15.6145 34.9422 14.1336 32.6828C14.016 32.4994 13.9641 32.1569 14.0575 31.9839C14.1509 31.8109 14.4589 31.6829 14.6838 31.6621C15.1924 31.6171 15.7079 31.6483 16.2719 31.6483C16.2719 31.4857 16.2719 31.3507 16.2719 31.2123C16.2719 28.9357 16.2719 26.659 16.2719 24.3823C16.2719 23.7146 16.4518 23.5312 17.1127 23.5312C18.5036 23.5312 19.891 23.5312 21.2819 23.5312C21.9359 23.5312 22.1227 23.718 22.1227 24.3893C22.1227 26.6417 22.1227 28.8907 22.1227 31.1431C22.1227 31.2954 22.1227 31.4476 22.1227 31.6483L22.1192 31.6517ZM22.7178 32.8627C22.3476 32.8627 22.0639 32.8627 21.7836 32.8627C21.102 32.8627 20.9152 32.6724 20.9152 31.9873C20.9152 29.7245 20.9152 27.4617 20.9152 25.2024C20.9152 25.057 20.9152 24.9083 20.9152 24.7699H17.4829C17.4829 24.9394 17.4829 25.0778 17.4829 25.2197C17.4829 27.4963 17.4829 29.7695 17.4829 32.0462C17.4829 32.6551 17.2753 32.8593 16.6732 32.8662C16.3688 32.8662 16.0643 32.8662 15.6802 32.8662C16.8705 34.6515 18.0157 36.3711 19.1956 38.1392C20.3754 36.3711 21.5207 34.655 22.7178 32.8662V32.8627Z" fill="#FF1922"/>
<path d="M27.8733 34.0183C27.3439 34.0183 26.8595 34.0149 26.3751 34.0183C26.081 34.0183 25.8008 33.9907 25.6382 33.7035C25.479 33.4163 25.5966 33.1637 25.7627 32.9146C27.2401 30.7037 28.7141 28.4893 30.1915 26.2784C30.5617 25.7248 31.0288 25.7283 31.4025 26.2853C32.8799 28.4962 34.3573 30.7106 35.8347 32.9215C36.0008 33.1707 36.1149 33.4163 35.9489 33.707C35.7932 33.9803 35.5337 34.0183 35.2499 34.0183C34.7517 34.0183 34.2535 34.0183 33.7137 34.0183V34.4681C33.7137 36.7448 33.7137 39.0215 33.7137 41.2947C33.7137 41.9521 33.5303 42.132 32.8626 42.1354C31.4751 42.1354 30.0842 42.1354 28.6968 42.1354C28.0671 42.1354 27.8733 41.9417 27.8733 41.3016C27.8733 39.0388 27.8733 36.7759 27.8733 34.5131V34.0218V34.0183ZM32.5131 40.9071V40.3985C32.5131 38.2776 32.5131 36.1566 32.5131 34.0357C32.5131 32.8593 32.5616 32.8108 33.7206 32.8108C33.8936 32.8108 34.0632 32.8108 34.3123 32.8108C33.1151 31.0151 31.9664 29.2955 30.7935 27.5344C29.6067 29.3128 28.465 31.0289 27.2747 32.8108C27.6276 32.8108 27.9044 32.8108 28.1847 32.8108C28.9009 32.8108 29.0808 32.9873 29.0808 33.6931C29.0808 35.9421 29.0808 38.1911 29.0808 40.4435V40.9071H32.5166H32.5131Z" fill="#FF1922"/>
</svg>
