<svg width="50" height="50" viewBox="0 0 50 50" fill="none" xmlns="http://www.w3.org/2000/svg">
<path d="M25.0434 6.71928C28.4792 6.71928 31.9149 6.71582 35.3472 6.71928C36.9319 6.71928 38.1982 7.72613 38.5477 9.24852C38.6169 9.55299 38.6377 9.87477 38.6377 10.1896C38.6446 13.442 38.6446 16.6978 38.6377 19.9502C38.6377 22.085 37.2744 23.4482 35.1465 23.4482C28.3754 23.4482 21.6008 23.4482 14.8296 23.4482C12.7225 23.4482 11.3558 22.0815 11.3558 19.971C11.3558 16.7186 11.3558 13.4628 11.3558 10.2104C11.3558 8.07213 12.7121 6.71582 14.8469 6.71582C18.2446 6.71582 21.6423 6.71582 25.0434 6.71582V6.71928ZM24.995 7.86453C21.5869 7.86453 18.1754 7.86107 14.7673 7.86453C13.3487 7.86453 12.5011 8.72952 12.5011 10.1481C12.5011 13.4385 12.5011 16.7255 12.5011 20.0159C12.5011 21.4311 13.3591 22.2961 14.7708 22.2961C21.5904 22.2961 28.41 22.2961 35.2296 22.2961C36.6378 22.2961 37.4959 21.4311 37.4959 20.0125C37.4959 16.722 37.4959 13.4351 37.4959 10.1446C37.4959 9.97511 37.4959 9.80211 37.4682 9.63603C37.2779 8.5323 36.444 7.86799 35.2261 7.86453C31.8181 7.86107 28.4065 7.86453 24.9985 7.86453H24.995Z" fill="#FF1922"/>
<path d="M13.6082 43.2808C12.1481 43.2808 10.6845 43.2808 9.22441 43.2808C8.67082 43.2808 8.46322 43.0905 8.48398 42.5334C8.51858 41.5023 8.44938 40.4436 8.65006 39.4437C9.15175 36.9663 11.4769 35.354 14.103 35.5304C16.473 35.6896 18.5179 37.7137 18.7186 40.1426C18.7878 40.966 18.7635 41.7964 18.7601 42.6234C18.7601 43.0766 18.5352 43.2773 18.0646 43.2773C16.5803 43.2773 15.0925 43.2773 13.6082 43.2773V43.2808ZM9.65345 42.1078H17.6148C17.6148 41.5577 17.6252 41.0352 17.6148 40.5163C17.5699 38.9281 16.5492 37.4922 15.0614 36.9213C13.5459 36.3401 11.854 36.7345 10.7295 37.8936C9.56695 39.0942 9.56003 40.5751 9.65691 42.1078H9.65345Z" fill="#FF1922"/>
<path d="M36.3714 43.2808C34.9112 43.2808 33.4477 43.2808 31.9876 43.2808C31.434 43.2808 31.216 43.087 31.2368 42.5369C31.2783 41.4712 31.2022 40.3709 31.4409 39.3433C32.0187 36.8314 34.4614 35.226 37.0045 35.5408C39.558 35.8557 41.4956 38.032 41.5163 40.6097C41.5232 41.2567 41.5163 41.9002 41.5163 42.5473C41.5163 43.0801 41.3191 43.2773 40.7932 43.2773C39.3192 43.2773 37.8453 43.2773 36.3748 43.2773L36.3714 43.2808ZM40.3572 42.1148C40.3572 41.5231 40.3884 40.973 40.3503 40.4298C40.2361 38.7828 39.4057 37.5995 37.8972 36.9698C36.399 36.3435 34.9804 36.603 33.7418 37.6583C32.3474 38.8451 32.2713 40.4471 32.4131 42.1182H40.3572V42.1148Z" fill="#FF1922"/>
<path d="M24.9984 43.2808C23.5383 43.2808 22.0782 43.2808 20.6146 43.2808C20.0506 43.2808 19.8465 43.1008 19.8673 42.5473C19.9019 41.492 19.8257 40.409 20.0472 39.3883C20.5869 36.8902 22.9985 35.2744 25.5797 35.5374C28.0812 35.7934 30.0603 37.9455 30.1261 40.4955C30.1434 41.2013 30.1364 41.9072 30.1295 42.613C30.1261 43.0766 29.9219 43.2773 29.4548 43.2808C27.9705 43.2842 26.4827 43.2808 24.9984 43.2808ZM28.9566 42.1113C28.9566 41.447 29.012 40.8 28.9462 40.1668C28.6867 37.6722 26.0883 36.0148 23.7355 36.866C21.227 37.7725 20.7738 39.9211 21.054 42.1113H28.96H28.9566Z" fill="#FF1922"/>
<path d="M25.0123 34.2987C23.1127 34.3056 21.5696 32.7798 21.5592 30.8837C21.5488 28.9703 23.0954 27.4134 25.0019 27.4168C26.8945 27.4168 28.4342 28.9634 28.4342 30.856C28.4342 32.759 26.9083 34.2918 25.0088 34.2987H25.0123ZM25.0157 28.569C23.7355 28.5621 22.7114 29.5689 22.701 30.8456C22.6906 32.112 23.7148 33.1534 24.9811 33.1673C26.2405 33.1811 27.282 32.1501 27.2958 30.8768C27.3062 29.6035 26.2924 28.5724 25.0157 28.5655V28.569Z" fill="#FF1922"/>
<path d="M32.9424 30.8595C32.9424 28.9634 34.4821 27.4203 36.3747 27.4168C38.2638 27.4168 39.8174 28.96 39.8278 30.8456C39.8381 32.7521 38.2811 34.3056 36.3678 34.2987C34.4648 34.2918 32.9424 32.7625 32.9424 30.856V30.8595ZM36.3609 28.5655C35.0911 28.5724 34.06 29.6139 34.0704 30.8768C34.0807 32.1362 35.1395 33.1811 36.392 33.1673C37.6653 33.1534 38.6756 32.1224 38.6721 30.8456C38.6652 29.5724 37.6376 28.5586 36.3609 28.5655Z" fill="#FF1922"/>
<path d="M17.0543 30.8491C17.0612 32.7521 15.5423 34.2883 13.6359 34.2987C11.726 34.3091 10.1655 32.759 10.169 30.8526C10.1724 28.9669 11.726 27.4169 13.6151 27.4134C15.5077 27.4134 17.0474 28.9462 17.0543 30.8457V30.8491ZM13.6047 28.569C12.328 28.5759 11.3177 29.5966 11.3212 30.8768C11.3246 32.1466 12.3695 33.1812 13.6289 33.1708C14.8918 33.1604 15.9298 32.1086 15.9229 30.8491C15.916 29.5828 14.878 28.5621 13.6047 28.569Z" fill="#FF1922"/>
<path d="M30.8769 12.7189C30.3683 12.6635 29.9427 12.6186 29.5206 12.5736C29.1157 12.5286 28.8943 12.2933 28.9254 11.9404C28.9566 11.5944 29.2299 11.4041 29.6382 11.4456C30.4997 11.5321 31.3578 11.6186 32.2159 11.7051C32.7453 11.7605 32.9321 11.9646 32.8837 12.494C32.8006 13.3901 32.7037 14.2863 32.5999 15.1824C32.5584 15.5353 32.2955 15.7464 31.9806 15.7152C31.6657 15.6806 31.4581 15.4281 31.4824 15.0682C31.51 14.6115 31.5619 14.1583 31.6138 13.6116C30.9841 14.1271 30.4236 14.5873 29.8631 15.0475C28.922 15.819 27.9774 16.5871 27.0432 17.3726C26.7388 17.6286 26.462 17.6494 26.1125 17.4625C24.7527 16.7325 23.3826 16.0197 22.0124 15.3035C21.9052 15.2481 21.7979 15.1962 21.6768 15.1409C20.5765 16.1858 19.4797 17.2272 18.3864 18.2652C18.2618 18.3829 18.1442 18.5074 18.0092 18.6112C17.7532 18.8084 17.4107 18.7808 17.2238 18.5455C17.0197 18.2929 17.0232 18.0196 17.2481 17.7843C17.5179 17.504 17.8051 17.2411 18.0888 16.9712C19.068 16.0405 20.0506 15.1097 21.0298 14.179C21.4242 13.8019 21.5696 13.7811 22.0643 14.0406C23.4345 14.7568 24.8012 15.473 26.1644 16.1996C26.3858 16.3173 26.5346 16.3242 26.7387 16.1512C28.0189 15.0786 29.313 14.0268 30.6001 12.968C30.6727 12.9092 30.7419 12.8435 30.87 12.7293L30.8769 12.7189Z" fill="#FF1922"/>
</svg>
